<svg width="30" height="30" viewBox="0 0 30 30" fill="none" xmlns="http://www.w3.org/2000/svg">
<g clip-path="url(#clip0_440_1234)">
<path d="M8.33366 4.5H7.00066C5.13381 4.5 4.19969 4.5 3.48666 4.82698C2.85944 5.11459 2.34988 5.57321 2.03031 6.1377C1.66699 6.77943 1.66699 7.62014 1.66699 9.3003V10.5M8.33366 4.5H21.667M8.33366 4.5V1.5M1.66699 10.5V23.7003C1.66699 25.3805 1.66699 26.2201 2.03031 26.8618C2.34988 27.4263 2.85944 27.8857 3.48666 28.1733C4.19899 28.5 5.13198 28.5 6.99518 28.5H23.0055C24.8687 28.5 25.8003 28.5 26.5127 28.1733C27.1398 27.8857 27.6512 27.4263 27.9707 26.8618C28.3337 26.2207 28.3337 25.3823 28.3337 23.7054V10.5M1.66699 10.5H28.3337M21.667 4.5H23.0007C24.8675 4.5 25.7997 4.5 26.5127 4.82698C27.1398 5.11459 27.6512 5.57321 27.9707 6.1377C28.3337 6.7788 28.3337 7.61848 28.3337 9.29536V10.5M21.667 4.5V1.5M21.667 22.5H21.6703V22.503H21.667V22.5ZM15.0003 22.5H15.0037L15.0036 22.503H15.0003V22.5ZM8.33366 22.5H8.33699L8.33691 22.503H8.33366V22.5ZM21.6703 16.5V16.503H21.667V16.5H21.6703ZM15.0003 16.5H15.0037L15.0036 16.503H15.0003V16.5ZM8.33366 16.5H8.33699L8.33691 16.503H8.33366V16.5Z" stroke="black" stroke-width="2" stroke-linecap="round" stroke-linejoin="round"/>
</g>
<defs>
<clipPath id="clip0_440_1234">
<rect width="30" height="30" fill="white"/>
</clipPath>
</defs>
</svg>
