<svg width="248" height="36" viewBox="0 0 248 36" fill="none" xmlns="http://www.w3.org/2000/svg">
<g clip-path="url(#clip0_225_923)">
<mask id="mask0_225_923" style="mask-type:luminance" maskUnits="userSpaceOnUse" x="41" y="-1" width="208" height="37">
<path d="M248.002 -0.000152588H41.2324V35.9998H248.002V-0.000152588Z" fill="white"/>
</mask>
<g mask="url(#mask0_225_923)">
<path d="M56.1039 23.0097C58.736 23.0097 60.2749 21.8601 60.8823 20.0972H70.2367C69.1837 26.9187 62.5831 29.0264 56.1039 29.0264C49.0173 29.0264 41.4043 26.5354 41.4043 18.2577C41.4043 9.94175 49.0173 7.4891 56.1039 7.4891C62.5831 7.4891 69.1837 9.59684 70.2367 16.3799H60.8823C60.2749 14.6171 58.736 13.4674 56.1039 13.4674C52.5808 13.4674 51.0016 15.4985 51.0016 18.2577C51.0016 21.017 52.5808 23.0097 56.1039 23.0097ZM85.2274 7.4891C92.3542 7.4891 98.7124 8.63878 98.7124 15.3836V28.4516H88.7505V26.4205C87.2927 27.8001 84.7413 29.0264 80.8539 29.0264C74.7394 29.0264 71.4588 27.0336 71.4588 22.8181C71.4588 18.0661 74.4964 15.2303 88.7505 15.8817V15.3836C88.7505 13.5057 88.0619 12.5477 85.2274 12.5477C83.0404 12.5477 81.8256 12.9692 81.5425 14.2339H72.6336C73.4028 9.25194 78.0194 7.4891 85.2274 7.4891ZM88.7505 22.8565V20.6337C83.7696 20.4038 81.0157 20.5571 81.0157 22.6648C81.0157 24.2361 82.5142 24.5043 83.8102 24.5043C85.956 24.5043 87.657 23.8145 88.7505 22.8565ZM133.038 7.4891C139.234 7.4891 141.987 10.2483 141.987 15.8434V28.4516H131.985V17.7596C131.985 15.6518 132.026 13.8123 129.353 13.8123C126.68 13.8123 126.519 15.5368 126.519 17.7596V28.4516H116.557V17.7596C116.557 15.6518 116.597 13.8123 113.924 13.8123C111.211 13.8123 111.09 15.5368 111.09 17.7596V28.4516H101.128V8.02562H111.09V10.7848C112.061 9.36691 114.127 7.4891 117.974 7.4891C121.821 7.4891 124.21 8.56213 125.466 10.7082C126.559 9.36691 128.948 7.4891 133.038 7.4891ZM173.546 18.2577C173.546 25.1941 168.606 29.0264 161.924 29.0264C158.603 29.0264 156.093 28.1067 154.392 26.3821V34.8514H144.431V8.02562H154.392V10.1334C156.093 8.40884 158.603 7.4891 161.924 7.4891C168.606 7.4891 173.546 11.3214 173.546 18.2577ZM163.949 18.2577C163.949 15.6135 162.41 13.4674 158.847 13.4674C155.283 13.4674 153.622 15.3836 153.622 18.2577C153.622 21.0936 155.283 23.0097 158.847 23.0097C162.41 23.0097 163.949 20.8637 163.949 18.2577ZM175.552 0.169495H185.514V28.4516H175.552V0.169495ZM202.225 7.4891C209.271 7.4891 216.885 9.94175 216.885 18.2577C216.885 26.5354 209.271 29.0264 202.225 29.0264C195.179 29.0264 187.525 26.5354 187.525 18.2577C187.525 9.94175 195.179 7.4891 202.225 7.4891ZM202.225 23.0097C205.708 23.0097 207.287 21.017 207.287 18.2577C207.287 15.4985 205.708 13.4674 202.225 13.4674C198.702 13.4674 197.123 15.4985 197.123 18.2577C197.123 21.017 198.702 23.0097 202.225 23.0097ZM237.644 8.02562H247.606V26.9187C247.606 34.8514 240.236 35.5796 232.178 35.5796C222.701 35.5796 219.219 32.782 219.057 28.6432H228.168C228.573 29.9845 230.598 30.1377 232.178 30.1377C234.526 30.1377 237.644 30.2144 237.644 26.9187V25.1558C236.146 26.4588 233.959 27.1869 230.882 27.1869C224.2 27.1869 218.49 24.466 218.49 17.5296C218.49 10.5932 223.431 7.4891 230.112 7.4891C233.473 7.4891 235.943 8.29388 237.644 9.8651V8.02562ZM233.19 21.5535C236.632 21.5535 238.413 20.2122 238.413 17.5296C238.413 14.8087 236.511 13.4674 233.19 13.4674C229.829 13.4674 228.128 15.0003 228.128 17.5296C228.128 20.0589 229.747 21.5535 233.19 21.5535Z" fill="#1D1D1D"/>
</g>
<mask id="mask1_225_923" style="mask-type:luminance" maskUnits="userSpaceOnUse" x="0" y="3" width="39" height="30">
<path d="M38.1538 3.48392H0V32.5162H38.1538V3.48392Z" fill="white"/>
</mask>
<g mask="url(#mask1_225_923)">
<path d="M19.2727 11.9265L35.0474 22.2096L19.2727 32.4927L3.49805 22.2096L19.2727 11.9265Z" fill="#31A832"/>
<g filter="url(#filter0_d_225_923)">
<path d="M19.2718 3.50763L35.0465 14.5724L19.2718 25.6373L3.49707 14.5724L19.2718 3.50763Z" fill="#31A832"/>
</g>
</g>
</g>
<defs>
<filter id="filter0_d_225_923" x="-0.498502" y="3.50762" width="39.5409" height="30.1208" filterUnits="userSpaceOnUse" color-interpolation-filters="sRGB">
<feFlood flood-opacity="0" result="BackgroundImageFix"/>
<feColorMatrix in="SourceAlpha" type="matrix" values="0 0 0 0 0 0 0 0 0 0 0 0 0 0 0 0 0 0 127 0" result="hardAlpha"/>
<feOffset dy="3.99556"/>
<feGaussianBlur stdDeviation="1.99779"/>
<feComposite in2="hardAlpha" operator="out"/>
<feColorMatrix type="matrix" values="0 0 0 0 0 0 0 0 0 0 0 0 0 0 0 0 0 0 0.25 0"/>
<feBlend mode="normal" in2="BackgroundImageFix" result="effect1_dropShadow_225_923"/>
<feBlend mode="normal" in="SourceGraphic" in2="effect1_dropShadow_225_923" result="shape"/>
</filter>
<clipPath id="clip0_225_923">
<rect width="248" height="36" fill="white"/>
</clipPath>
</defs>
</svg>
