<svg width="32" height="32" viewBox="0 0 32 32" fill="none" xmlns="http://www.w3.org/2000/svg">
<path d="M11.0003 4.33333H6.33366C4.46682 4.33333 3.5327 4.33333 2.81966 4.69665C2.19245 5.01622 1.68289 5.52579 1.36331 6.15299C1 6.86603 1 7.80015 1 9.66699V25.667C1 27.5338 1 28.4668 1.36331 29.1798C1.68289 29.807 2.19245 30.3175 2.81966 30.637C3.532 31 4.46499 31 6.32818 31H22.3385C24.2017 31 25.1333 31 25.8457 30.637C26.4729 30.3175 26.9841 29.8065 27.3037 29.1793C27.6667 28.467 27.6667 27.535 27.6667 25.6718V21M21 6L11 16V21H16L26 11M21 6L26 1L31 6L26 11M21 6L26 11" stroke="black" stroke-opacity="0.8" stroke-width="2" stroke-linecap="round" stroke-linejoin="round"/>
</svg>
