<svg width="30" height="30" viewBox="0 0 30 30" fill="none" xmlns="http://www.w3.org/2000/svg">
<path d="M2.91821 12.9211C2.52665 12.559 2.73935 11.9044 3.26897 11.8416L10.7734 10.9515C10.9893 10.9259 11.1768 10.7903 11.2678 10.5929L14.4331 3.7307C14.6565 3.24641 15.345 3.24631 15.5684 3.73061L18.7336 10.5928C18.8246 10.7902 19.011 10.9261 19.2268 10.9517L26.7316 11.8416C27.2613 11.9044 27.4734 12.5591 27.0819 12.9212L21.5343 18.0525C21.3746 18.2001 21.3036 18.4197 21.3459 18.633L22.8183 26.045C22.9223 26.5681 22.3655 26.9735 21.9001 26.713L15.3059 23.0209C15.1163 22.9147 14.8859 22.9152 14.6961 23.0214L8.10131 26.712C7.63592 26.9725 7.07819 26.5681 7.18212 26.045L8.65469 18.6334C8.69705 18.4202 8.62619 18.2 8.4666 18.0525L2.91821 12.9211Z" stroke="black" stroke-width="2" stroke-linecap="round" stroke-linejoin="round"/>
</svg>
